<svg width="213" height="106" viewBox="0 0 213 106" fill="none" xmlns="http://www.w3.org/2000/svg">
<path d="M51.29 70.496C54.02 70.496 56.708 71.168 58.514 71.798V77.594H55.742L55.406 74.024C54.23 73.688 52.928 73.52 51.542 73.52C48.518 73.52 46.544 73.982 46.544 76.166C46.544 80.87 59.438 79.274 59.438 86.33C59.438 90.068 57.044 92.21 51.038 92.21C47.972 92.21 44.99 91.412 42.848 90.74V84.776H45.788L46.124 88.472C47.762 88.934 49.274 89.102 50.954 89.102C53.978 89.102 55.574 88.514 55.574 86.288C55.574 82.214 42.722 83.6 42.722 76.376C42.722 72.68 45.62 70.496 51.29 70.496ZM61.8215 70.748H65.3915V64.28H69.1715V70.748H76.0175V73.646H69.1715V83.138C69.1715 87.296 70.0535 88.682 72.1955 88.682C73.2035 88.682 74.4635 88.346 76.0175 87.842L76.5215 91.244C74.4215 91.958 72.6575 92.336 71.1875 92.336C67.2815 92.336 65.3915 89.606 65.3915 83.054V73.646H61.8215V70.748ZM79.1321 70.79H86.1041V82.424C86.1041 86.96 87.9101 89.186 91.2281 89.186C93.9161 89.186 95.6801 86.75 96.4781 84.398V73.646H93.2441V70.79H100.258V89.102H103.492V92H96.4781V89.396C95.0921 91.076 93.0761 92.294 90.3881 92.294C85.4741 92.294 82.3241 89.144 82.3241 83.306V73.646H79.1321V70.79ZM105.348 81.29C105.348 74.57 109.422 70.496 114.84 70.496C117.696 70.496 120.216 71.546 121.896 73.52V65.33H118.62V62.474H125.676V89.102H128.868V92H121.896V89.228C120.174 91.118 117.654 92.21 114.84 92.21C109.422 92.21 105.348 88.094 105.348 81.29ZM115.848 73.856C112.068 73.856 109.254 76.838 109.254 81.374C109.254 85.91 112.068 88.934 115.848 88.934C118.872 88.934 121.098 87.128 121.896 84.146V78.602C121.098 75.746 118.83 73.856 115.848 73.856ZM131.304 73.646V70.748H138.318V89.102H141.594V92H131.304V89.102H134.58V73.646H131.304ZM136.176 67.22C134.202 67.22 132.9 66.464 132.9 64.658C132.9 62.978 134.202 62.138 136.176 62.138C138.15 62.138 139.41 62.978 139.41 64.658C139.41 66.464 138.15 67.22 136.176 67.22ZM160.418 81.248C160.418 76.712 157.562 73.814 153.866 73.814C150.17 73.814 147.398 76.712 147.398 81.248C147.398 85.91 150.128 88.808 153.866 88.808C157.562 88.808 160.418 85.868 160.418 81.248ZM164.282 81.29C164.282 88.094 159.746 92.21 153.866 92.21C148.028 92.21 143.492 88.094 143.492 81.29C143.492 74.57 148.028 70.496 153.866 70.496C159.746 70.496 164.282 74.57 164.282 81.29Z" fill="white"/>
<line y1="-1" x2="213" transform="matrix(1 0 0 -1 0 58)" stroke="white" stroke-width="2"/>
<line y1="-1" x2="213" y2="32" transform="matrix(1 0 0 -1 0 99)" stroke="white" stroke-width="2"/>
<mask id="path-4-outside-1_105_36" maskUnits="userSpaceOnUse" x="2" y="8" width="209" height="32" fill="black">
<rect fill="white" x="2" y="8" width="209" height="32"/>
<path d="M7.158 13.22H3.588V9.86H15.096V13.22H11.274L16.734 33.128L23.412 11.54H27.528L34.206 33.128L39.666 13.22H35.844V9.86H47.352V13.22H43.782L36.768 38H32.106L25.512 16.622L18.834 38H14.172L7.158 13.22ZM52.7421 13.22H49.5501V9.86H72.3141V18.428H69.3741L68.9541 13.22H56.7741V22.46H65.8881V25.526H56.7741V34.64H68.9541L69.3741 29.432H72.3141V38H49.5501V34.64H52.7421V13.22ZM75.595 13.22V9.86H88.321C94.495 9.86 98.149 12.044 98.149 17.21C98.149 20.108 96.973 22.334 94.831 23.72C98.149 24.77 99.955 27.164 99.955 30.692C99.955 35.69 96.175 38 90.085 38H75.595V34.64H78.787V13.22H75.595ZM82.819 25.694V34.64L90.085 34.682C93.949 34.64 96.217 33.422 96.217 30.104C96.217 26.912 93.949 25.694 90.085 25.694H82.819ZM82.819 13.22V22.628H88.321C92.185 22.628 94.453 21.158 94.453 17.798C94.453 14.27 92.185 13.22 88.321 13.22H82.819ZM124.19 38H103.568V34.64H106.76V13.22H103.568V9.86H113.984V13.22H110.792V34.64H120.242L120.746 29.138H124.19V38ZM149.755 23.846C149.755 17 145.975 13.136 140.473 13.136C134.971 13.136 131.149 17 131.149 23.846C131.149 30.734 134.971 34.724 140.473 34.724C145.975 34.724 149.755 30.734 149.755 23.846ZM153.787 23.846C153.787 33.38 148.033 38.21 140.473 38.21C132.871 38.21 127.075 33.38 127.075 23.846C127.075 14.438 132.871 9.65 140.473 9.65C148.033 9.65 153.787 14.438 153.787 23.846ZM166.853 38H156.437V34.64H159.629V13.22H156.437V9.86H179.411V18.428H176.387L176.009 13.22H163.661V22.46H172.985V25.526H163.661V34.64H166.853V38ZM185.261 18.554H182.195V9.86H209.075V18.554H206.009L205.631 13.22H197.609V34.64H200.885V38H190.385V34.64H193.661V13.22H185.639L185.261 18.554Z"/>
</mask>
<path d="M7.158 13.22H3.588V9.86H15.096V13.22H11.274L16.734 33.128L23.412 11.54H27.528L34.206 33.128L39.666 13.22H35.844V9.86H47.352V13.22H43.782L36.768 38H32.106L25.512 16.622L18.834 38H14.172L7.158 13.22ZM52.7421 13.22H49.5501V9.86H72.3141V18.428H69.3741L68.9541 13.22H56.7741V22.46H65.8881V25.526H56.7741V34.64H68.9541L69.3741 29.432H72.3141V38H49.5501V34.64H52.7421V13.22ZM75.595 13.22V9.86H88.321C94.495 9.86 98.149 12.044 98.149 17.21C98.149 20.108 96.973 22.334 94.831 23.72C98.149 24.77 99.955 27.164 99.955 30.692C99.955 35.69 96.175 38 90.085 38H75.595V34.64H78.787V13.22H75.595ZM82.819 25.694V34.64L90.085 34.682C93.949 34.64 96.217 33.422 96.217 30.104C96.217 26.912 93.949 25.694 90.085 25.694H82.819ZM82.819 13.22V22.628H88.321C92.185 22.628 94.453 21.158 94.453 17.798C94.453 14.27 92.185 13.22 88.321 13.22H82.819ZM124.19 38H103.568V34.64H106.76V13.22H103.568V9.86H113.984V13.22H110.792V34.64H120.242L120.746 29.138H124.19V38ZM149.755 23.846C149.755 17 145.975 13.136 140.473 13.136C134.971 13.136 131.149 17 131.149 23.846C131.149 30.734 134.971 34.724 140.473 34.724C145.975 34.724 149.755 30.734 149.755 23.846ZM153.787 23.846C153.787 33.38 148.033 38.21 140.473 38.21C132.871 38.21 127.075 33.38 127.075 23.846C127.075 14.438 132.871 9.65 140.473 9.65C148.033 9.65 153.787 14.438 153.787 23.846ZM166.853 38H156.437V34.64H159.629V13.22H156.437V9.86H179.411V18.428H176.387L176.009 13.22H163.661V22.46H172.985V25.526H163.661V34.64H166.853V38ZM185.261 18.554H182.195V9.86H209.075V18.554H206.009L205.631 13.22H197.609V34.64H200.885V38H190.385V34.64H193.661V13.22H185.639L185.261 18.554Z" fill="white"/>
<path d="M7.158 13.22L8.1202 12.9476L7.91424 12.22H7.158V13.22ZM3.588 13.22H2.588V14.22H3.588V13.22ZM3.588 9.86V8.86H2.588V9.86H3.588ZM15.096 9.86H16.096V8.86H15.096V9.86ZM15.096 13.22V14.22H16.096V13.22H15.096ZM11.274 13.22V12.22H9.96281L10.3096 13.4845L11.274 13.22ZM16.734 33.128L15.7696 33.3925L16.6763 36.6984L17.6893 33.4235L16.734 33.128ZM23.412 11.54V10.54H22.6746L22.4567 11.2445L23.412 11.54ZM27.528 11.54L28.4833 11.2445L28.2654 10.54H27.528V11.54ZM34.206 33.128L33.2507 33.4235L34.2637 36.6984L35.1704 33.3925L34.206 33.128ZM39.666 13.22L40.6304 13.4845L40.9772 12.22H39.666V13.22ZM35.844 13.22H34.844V14.22H35.844V13.22ZM35.844 9.86V8.86H34.844V9.86H35.844ZM47.352 9.86H48.352V8.86H47.352V9.86ZM47.352 13.22V14.22H48.352V13.22H47.352ZM43.782 13.22V12.22H43.0258L42.8198 12.9476L43.782 13.22ZM36.768 38V39H37.5242L37.7302 38.2724L36.768 38ZM32.106 38L31.1504 38.2947L31.368 39H32.106V38ZM25.512 16.622L26.4676 16.3273L25.518 13.2488L24.5575 16.3238L25.512 16.622ZM18.834 38V39H19.5693L19.7885 38.2982L18.834 38ZM14.172 38L13.2098 38.2724L13.4158 39H14.172V38ZM7.158 12.22H3.588V14.22H7.158V12.22ZM4.588 13.22V9.86H2.588V13.22H4.588ZM3.588 10.86H15.096V8.86H3.588V10.86ZM14.096 9.86V13.22H16.096V9.86H14.096ZM15.096 12.22H11.274V14.22H15.096V12.22ZM10.3096 13.4845L15.7696 33.3925L17.6984 32.8635L12.2384 12.9555L10.3096 13.4845ZM17.6893 33.4235L24.3673 11.8355L22.4567 11.2445L15.7787 32.8325L17.6893 33.4235ZM23.412 12.54H27.528V10.54H23.412V12.54ZM26.5727 11.8355L33.2507 33.4235L35.1613 32.8325L28.4833 11.2445L26.5727 11.8355ZM35.1704 33.3925L40.6304 13.4845L38.7016 12.9555L33.2416 32.8635L35.1704 33.3925ZM39.666 12.22H35.844V14.22H39.666V12.22ZM36.844 13.22V9.86H34.844V13.22H36.844ZM35.844 10.86H47.352V8.86H35.844V10.86ZM46.352 9.86V13.22H48.352V9.86H46.352ZM47.352 12.22H43.782V14.22H47.352V12.22ZM42.8198 12.9476L35.8058 37.7276L37.7302 38.2724L44.7442 13.4923L42.8198 12.9476ZM36.768 37H32.106V39H36.768V37ZM33.0616 37.7053L26.4676 16.3273L24.5564 16.9167L31.1504 38.2947L33.0616 37.7053ZM24.5575 16.3238L17.8795 37.7018L19.7885 38.2982L26.4665 16.9202L24.5575 16.3238ZM18.834 37H14.172V39H18.834V37ZM15.1342 37.7276L8.1202 12.9476L6.1958 13.4923L13.2098 38.2724L15.1342 37.7276ZM52.7421 13.22H53.7421V12.22H52.7421V13.22ZM49.5501 13.22H48.5501V14.22H49.5501V13.22ZM49.5501 9.86V8.86H48.5501V9.86H49.5501ZM72.3141 9.86H73.3141V8.86H72.3141V9.86ZM72.3141 18.428V19.428H73.3141V18.428H72.3141ZM69.3741 18.428L68.3773 18.5084L68.4515 19.428H69.3741V18.428ZM68.9541 13.22L69.9509 13.1396L69.8767 12.22H68.9541V13.22ZM56.7741 13.22V12.22H55.7741V13.22H56.7741ZM56.7741 22.46H55.7741V23.46H56.7741V22.46ZM65.8881 22.46H66.8881V21.46H65.8881V22.46ZM65.8881 25.526V26.526H66.8881V25.526H65.8881ZM56.7741 25.526V24.526H55.7741V25.526H56.7741ZM56.7741 34.64H55.7741V35.64H56.7741V34.64ZM68.9541 34.64V35.64H69.8767L69.9509 34.7204L68.9541 34.64ZM69.3741 29.432V28.432H68.4515L68.3773 29.3516L69.3741 29.432ZM72.3141 29.432H73.3141V28.432H72.3141V29.432ZM72.3141 38V39H73.3141V38H72.3141ZM49.5501 38H48.5501V39H49.5501V38ZM49.5501 34.64V33.64H48.5501V34.64H49.5501ZM52.7421 34.64V35.64H53.7421V34.64H52.7421ZM52.7421 12.22H49.5501V14.22H52.7421V12.22ZM50.5501 13.22V9.86H48.5501V13.22H50.5501ZM49.5501 10.86H72.3141V8.86H49.5501V10.86ZM71.3141 9.86V18.428H73.3141V9.86H71.3141ZM72.3141 17.428H69.3741V19.428H72.3141V17.428ZM70.3709 18.3476L69.9509 13.1396L67.9573 13.3004L68.3773 18.5084L70.3709 18.3476ZM68.9541 12.22H56.7741V14.22H68.9541V12.22ZM55.7741 13.22V22.46H57.7741V13.22H55.7741ZM56.7741 23.46H65.8881V21.46H56.7741V23.46ZM64.8881 22.46V25.526H66.8881V22.46H64.8881ZM65.8881 24.526H56.7741V26.526H65.8881V24.526ZM55.7741 25.526V34.64H57.7741V25.526H55.7741ZM56.7741 35.64H68.9541V33.64H56.7741V35.64ZM69.9509 34.7204L70.3709 29.5124L68.3773 29.3516L67.9573 34.5596L69.9509 34.7204ZM69.3741 30.432H72.3141V28.432H69.3741V30.432ZM71.3141 29.432V38H73.3141V29.432H71.3141ZM72.3141 37H49.5501V39H72.3141V37ZM50.5501 38V34.64H48.5501V38H50.5501ZM49.5501 35.64H52.7421V33.64H49.5501V35.64ZM53.7421 34.64V13.22H51.7421V34.64H53.7421ZM75.595 13.22H74.595V14.22H75.595V13.22ZM75.595 9.86V8.86H74.595V9.86H75.595ZM94.831 23.72L94.2878 22.8804L92.5062 24.0332L94.5293 24.6734L94.831 23.72ZM75.595 38H74.595V39H75.595V38ZM75.595 34.64V33.64H74.595V34.64H75.595ZM78.787 34.64V35.64H79.787V34.64H78.787ZM78.787 13.22H79.787V12.22H78.787V13.22ZM82.819 25.694V24.694H81.819V25.694H82.819ZM82.819 34.64H81.819V35.6342L82.8132 35.64L82.819 34.64ZM90.085 34.682L90.0793 35.682L90.0876 35.682L90.0959 35.6819L90.085 34.682ZM82.819 13.22V12.22H81.819V13.22H82.819ZM82.819 22.628H81.819V23.628H82.819V22.628ZM76.595 13.22V9.86H74.595V13.22H76.595ZM75.595 10.86H88.321V8.86H75.595V10.86ZM88.321 10.86C91.3205 10.86 93.5331 11.396 94.9729 12.4142C96.3493 13.3876 97.149 14.894 97.149 17.21H99.149C99.149 14.36 98.1218 12.1914 96.1277 10.7813C94.197 9.41599 91.4955 8.86 88.321 8.86V10.86ZM97.149 17.21C97.149 19.8046 96.1161 21.6974 94.2878 22.8804L95.3743 24.5596C97.8299 22.9706 99.149 20.4114 99.149 17.21H97.149ZM94.5293 24.6734C96.0272 25.1474 97.1153 25.901 97.8334 26.8715C98.5507 27.841 98.955 29.1027 98.955 30.692H100.955C100.955 28.7533 100.456 27.054 99.4412 25.682C98.4267 24.311 96.9529 23.3426 95.1327 22.7666L94.5293 24.6734ZM98.955 30.692C98.955 32.9022 98.1397 34.4079 96.7278 35.4028C95.2596 36.4373 93.0294 37 90.085 37V39C93.2307 39 95.9354 38.4077 97.8798 37.0377C99.8803 35.6281 100.955 33.4798 100.955 30.692H98.955ZM90.085 37H75.595V39H90.085V37ZM76.595 38V34.64H74.595V38H76.595ZM75.595 35.64H78.787V33.64H75.595V35.64ZM79.787 34.64V13.22H77.787V34.64H79.787ZM78.787 12.22H75.595V14.22H78.787V12.22ZM81.819 25.694V34.64H83.819V25.694H81.819ZM82.8132 35.64L90.0793 35.682L90.0908 33.682L82.8248 33.64L82.8132 35.64ZM90.0959 35.6819C92.0944 35.6602 93.8712 35.3394 95.168 34.4446C96.5412 33.497 97.217 32.022 97.217 30.104H95.217C95.217 31.504 94.7588 32.297 94.0321 32.7984C93.2289 33.3526 91.9397 33.6618 90.0742 33.6821L90.0959 35.6819ZM97.217 30.104C97.217 28.2352 96.5307 26.7918 95.1566 25.8712C93.8604 25.0027 92.0867 24.694 90.085 24.694V26.694C91.9474 26.694 93.2397 26.9943 94.0434 27.5328C94.7694 28.0192 95.217 28.7808 95.217 30.104H97.217ZM90.085 24.694H82.819V26.694H90.085V24.694ZM81.819 13.22V22.628H83.819V13.22H81.819ZM82.819 23.628H88.321V21.628H82.819V23.628ZM88.321 23.628C90.352 23.628 92.138 23.2465 93.436 22.273C94.7869 21.2598 95.453 19.7259 95.453 17.798H93.453C93.453 19.2301 92.9851 20.1112 92.236 20.673C91.434 21.2745 90.1541 21.628 88.321 21.628V23.628ZM95.453 17.798C95.453 15.7958 94.7906 14.2918 93.3926 13.3552C92.0855 12.4795 90.2988 12.22 88.321 12.22V14.22C90.2072 14.22 91.4865 14.4855 92.2794 15.0168C92.9815 15.4872 93.453 16.2722 93.453 17.798H95.453ZM88.321 12.22H82.819V14.22H88.321V12.22ZM124.19 38V39H125.19V38H124.19ZM103.568 38H102.568V39H103.568V38ZM103.568 34.64V33.64H102.568V34.64H103.568ZM106.76 34.64V35.64H107.76V34.64H106.76ZM106.76 13.22H107.76V12.22H106.76V13.22ZM103.568 13.22H102.568V14.22H103.568V13.22ZM103.568 9.86V8.86H102.568V9.86H103.568ZM113.984 9.86H114.984V8.86H113.984V9.86ZM113.984 13.22V14.22H114.984V13.22H113.984ZM110.792 13.22V12.22H109.792V13.22H110.792ZM110.792 34.64H109.792V35.64H110.792V34.64ZM120.242 34.64V35.64H121.154L121.238 34.7312L120.242 34.64ZM120.746 29.138V28.138H119.833L119.75 29.0468L120.746 29.138ZM124.19 29.138H125.19V28.138H124.19V29.138ZM124.19 37H103.568V39H124.19V37ZM104.568 38V34.64H102.568V38H104.568ZM103.568 35.64H106.76V33.64H103.568V35.64ZM107.76 34.64V13.22H105.76V34.64H107.76ZM106.76 12.22H103.568V14.22H106.76V12.22ZM104.568 13.22V9.86H102.568V13.22H104.568ZM103.568 10.86H113.984V8.86H103.568V10.86ZM112.984 9.86V13.22H114.984V9.86H112.984ZM113.984 12.22H110.792V14.22H113.984V12.22ZM109.792 13.22V34.64H111.792V13.22H109.792ZM110.792 35.64H120.242V33.64H110.792V35.64ZM121.238 34.7312L121.742 29.2292L119.75 29.0468L119.246 34.5488L121.238 34.7312ZM120.746 30.138H124.19V28.138H120.746V30.138ZM123.19 29.138V38H125.19V29.138H123.19ZM150.755 23.846C150.755 20.2439 149.759 17.3061 147.921 15.2563C146.075 13.1956 143.469 12.136 140.473 12.136V14.136C142.978 14.136 145.014 15.0084 146.432 16.5912C147.861 18.1849 148.755 20.6021 148.755 23.846H150.755ZM140.473 12.136C137.477 12.136 134.862 13.1952 133.005 15.254C131.157 17.3029 130.149 20.2411 130.149 23.846H132.149C132.149 20.6049 133.052 18.1881 134.49 16.5935C135.919 15.0088 137.966 14.136 140.473 14.136V12.136ZM130.149 23.846C130.149 27.4701 131.155 30.4463 132.998 32.5304C134.851 34.6261 137.467 35.724 140.473 35.724V33.724C137.977 33.724 135.93 32.8269 134.496 31.2056C133.053 29.5727 132.149 27.1099 132.149 23.846H130.149ZM140.473 35.724C143.479 35.724 146.085 34.6256 147.928 32.528C149.76 30.4431 150.755 27.4674 150.755 23.846H148.755C148.755 27.1126 147.859 29.5759 146.426 31.208C145.003 32.8274 142.968 33.724 140.473 33.724V35.724ZM152.787 23.846C152.787 28.4088 151.414 31.7252 149.255 33.8985C147.094 36.0743 144.039 37.21 140.473 37.21V39.21C144.466 39.21 148.069 37.9307 150.674 35.308C153.282 32.6828 154.787 28.8172 154.787 23.846H152.787ZM140.473 37.21C136.883 37.21 133.807 36.0732 131.63 33.8961C129.456 31.7224 128.075 28.4068 128.075 23.846H126.075C126.075 28.8192 127.591 32.6856 130.216 35.3104C132.837 37.9318 136.46 39.21 140.473 39.21V37.21ZM128.075 23.846C128.075 19.352 129.454 16.0795 131.626 13.931C133.803 11.778 136.881 10.65 140.473 10.65V8.65C136.462 8.65 132.841 9.916 130.22 12.509C127.593 15.1065 126.075 18.932 126.075 23.846H128.075ZM140.473 10.65C144.042 10.65 147.098 11.7769 149.259 13.9287C151.417 16.0767 152.787 19.3499 152.787 23.846H154.787C154.787 18.9341 153.28 15.1093 150.67 12.5113C148.064 9.91708 144.463 8.65 140.473 8.65V10.65ZM166.853 38V39H167.853V38H166.853ZM156.437 38H155.437V39H156.437V38ZM156.437 34.64V33.64H155.437V34.64H156.437ZM159.629 34.64V35.64H160.629V34.64H159.629ZM159.629 13.22H160.629V12.22H159.629V13.22ZM156.437 13.22H155.437V14.22H156.437V13.22ZM156.437 9.86V8.86H155.437V9.86H156.437ZM179.411 9.86H180.411V8.86H179.411V9.86ZM179.411 18.428V19.428H180.411V18.428H179.411ZM176.387 18.428L175.389 18.5004L175.457 19.428H176.387V18.428ZM176.009 13.22L177.006 13.1476L176.939 12.22H176.009V13.22ZM163.661 13.22V12.22H162.661V13.22H163.661ZM163.661 22.46H162.661V23.46H163.661V22.46ZM172.985 22.46H173.985V21.46H172.985V22.46ZM172.985 25.526V26.526H173.985V25.526H172.985ZM163.661 25.526V24.526H162.661V25.526H163.661ZM163.661 34.64H162.661V35.64H163.661V34.64ZM166.853 34.64H167.853V33.64H166.853V34.64ZM166.853 37H156.437V39H166.853V37ZM157.437 38V34.64H155.437V38H157.437ZM156.437 35.64H159.629V33.64H156.437V35.64ZM160.629 34.64V13.22H158.629V34.64H160.629ZM159.629 12.22H156.437V14.22H159.629V12.22ZM157.437 13.22V9.86H155.437V13.22H157.437ZM156.437 10.86H179.411V8.86H156.437V10.86ZM178.411 9.86V18.428H180.411V9.86H178.411ZM179.411 17.428H176.387V19.428H179.411V17.428ZM177.384 18.3556L177.006 13.1476L175.011 13.2924L175.389 18.5004L177.384 18.3556ZM176.009 12.22H163.661V14.22H176.009V12.22ZM162.661 13.22V22.46H164.661V13.22H162.661ZM163.661 23.46H172.985V21.46H163.661V23.46ZM171.985 22.46V25.526H173.985V22.46H171.985ZM172.985 24.526H163.661V26.526H172.985V24.526ZM162.661 25.526V34.64H164.661V25.526H162.661ZM163.661 35.64H166.853V33.64H163.661V35.64ZM165.853 34.64V38H167.853V34.64H165.853ZM185.261 18.554V19.554H186.192L186.258 18.6247L185.261 18.554ZM182.195 18.554H181.195V19.554H182.195V18.554ZM182.195 9.86V8.86H181.195V9.86H182.195ZM209.075 9.86H210.075V8.86H209.075V9.86ZM209.075 18.554V19.554H210.075V18.554H209.075ZM206.009 18.554L205.011 18.6247L205.077 19.554H206.009V18.554ZM205.631 13.22L206.628 13.1493L206.562 12.22H205.631V13.22ZM197.609 13.22V12.22H196.609V13.22H197.609ZM197.609 34.64H196.609V35.64H197.609V34.64ZM200.885 34.64H201.885V33.64H200.885V34.64ZM200.885 38V39H201.885V38H200.885ZM190.385 38H189.385V39H190.385V38ZM190.385 34.64V33.64H189.385V34.64H190.385ZM193.661 34.64V35.64H194.661V34.64H193.661ZM193.661 13.22H194.661V12.22H193.661V13.22ZM185.639 13.22V12.22H184.707L184.641 13.1493L185.639 13.22ZM185.261 17.554H182.195V19.554H185.261V17.554ZM183.195 18.554V9.86H181.195V18.554H183.195ZM182.195 10.86H209.075V8.86H182.195V10.86ZM208.075 9.86V18.554H210.075V9.86H208.075ZM209.075 17.554H206.009V19.554H209.075V17.554ZM207.006 18.4833L206.628 13.1493L204.633 13.2907L205.011 18.6247L207.006 18.4833ZM205.631 12.22H197.609V14.22H205.631V12.22ZM196.609 13.22V34.64H198.609V13.22H196.609ZM197.609 35.64H200.885V33.64H197.609V35.64ZM199.885 34.64V38H201.885V34.64H199.885ZM200.885 37H190.385V39H200.885V37ZM191.385 38V34.64H189.385V38H191.385ZM190.385 35.64H193.661V33.64H190.385V35.64ZM194.661 34.64V13.22H192.661V34.64H194.661ZM193.661 12.22H185.639V14.22H193.661V12.22ZM184.641 13.1493L184.263 18.4833L186.258 18.6247L186.636 13.2907L184.641 13.1493Z" fill="black" mask="url(#path-4-outside-1_105_36)"/>
</svg>
